<svg xmlns="http://www.w3.org/2000/svg" viewBox="0 0 2120 1192"><defs><style>.cls-1{fill:#0629c3;}.cls-2{fill:#fff;}</style></defs><g id="Camada_1" data-name="Camada 1"><polygon class="cls-1" points="1773.91 809.05 334.56 809.05 334.56 457.23 1862.4 457.23 1862.4 720.76 1773.91 809.05"/><path class="cls-2" d="M447,720.58H414V545.7h33v71.71h7.24l46.22-71.71h37.22v1.5l-54,83.7v4.49l57,83.7v1.49H502l-47.72-71.7H447Z"/><path class="cls-2" d="M559.66,613.66q0-34,17.11-52.72t47.35-18.73q30.23,0,47.34,18.73t17.11,52.72v39q0,35-17.11,53.21t-47.34,18.24q-30.24,0-47.35-18.24t-17.11-53.21Zm64.46,80.44q9,0,15-2.87a25,25,0,0,0,9.74-8.12,32.55,32.55,0,0,0,5.25-12.49,79.74,79.74,0,0,0,1.5-16v-43a66.15,66.15,0,0,0-1.75-15.49,35.69,35.69,0,0,0-5.5-12.49,27.22,27.22,0,0,0-9.74-8.37,35.21,35.21,0,0,0-29,0,27.17,27.17,0,0,0-9.75,8.37,35.68,35.68,0,0,0-5.49,12.49,65.63,65.63,0,0,0-1.75,15.49v43a79,79,0,0,0,1.5,16,32.54,32.54,0,0,0,5.24,12.49,25,25,0,0,0,9.75,8.12Q615.12,694.11,624.12,694.1Z"/><path class="cls-2" d="M836.22,720.58h-33V668.12a14.71,14.71,0,0,0-3.12-9.74q-3.12-3.75-10.37-3.75h-38v66h-33V545.7h67a68.88,68.88,0,0,1,23.73,3.75,48.13,48.13,0,0,1,17.11,10.37,45.23,45.23,0,0,1,10.5,15.36,48.62,48.62,0,0,1,3.62,18.74v6A37.82,37.82,0,0,1,835,620q-5.75,9.36-17.73,14.36v4.5q8.73,1,13.86,6.75t5.12,14.49Zm-84.44-97.43h31.48q12,0,18.23-5.62t6.25-15.86v-3a20.85,20.85,0,0,0-6.25-15.12q-6.24-6.36-18.23-6.37H751.78Z"/><path class="cls-2" d="M874,545.7H984.37v31.48H906.92v40h74.45v31.47H906.92v40.48h80.45v31.47H874Z"/><path class="cls-2" d="M1099.62,545.7h63.45q32.48,0,48.22,15.12T1227,607.66v51q0,31.73-15.74,46.84t-48.22,15.11h-63.45V688.86h16.49V577.18h-16.49Zm63.45,143.41q17.25,0,24.11-8.12t6.87-25.36v-48q0-15-6.87-22.73t-24.11-7.75h-14V689.11Z"/><path class="cls-2" d="M1347.2,683.11h-59.46l-8.5,37.47h-34.47l41.72-174.88h62l41.72,174.88h-34.48Zm-52.47-31.48H1340l-20.23-89.44h-4.5Z"/><path class="cls-2" d="M1407.41,545.7h125.91v31.48h-46.47v143.4h-33V577.18h-46.46Z"/><path class="cls-2" d="M1653,683.11h-59.46L1585,720.58h-34.48l41.72-174.88h62L1696,720.58h-34.48Zm-52.46-31.48h45.21l-20.23-89.44H1621Z"/><path class="cls-2" d="M1765.94,700.35a23.51,23.51,0,0,1-1.88,9.37,22.57,22.57,0,0,1-5.12,7.49,25.06,25.06,0,0,1-7.62,5,22.87,22.87,0,0,1-9.12,1.87,22.61,22.61,0,0,1-9.24-1.87,25.45,25.45,0,0,1-7.49-5,22.6,22.6,0,0,1-5.13-7.49,24.41,24.41,0,0,1,0-18.74,22.6,22.6,0,0,1,5.13-7.49,25.45,25.45,0,0,1,7.49-5,22.61,22.61,0,0,1,9.24-1.87,22.87,22.87,0,0,1,9.12,1.87,25.06,25.06,0,0,1,7.62,5,22.57,22.57,0,0,1,5.12,7.49A23.55,23.55,0,0,1,1765.94,700.35Z"/></g></svg>